<?xml version="1.0" encoding="UTF-8"?>
<svg id="Calque_2" data-name="Calque 2" xmlns="http://www.w3.org/2000/svg" viewBox="0 0 1044.91 414.72">
  <defs>
    <style>
      .cls-1 {
        fill: #fff;
      }

      .cls-2 {
        fill: #f9f9f9;
      }

      .cls-3 {
        fill: red;
      }
    </style>
  </defs>
  <g id="Calque_1-2" data-name="Calque 1">
    <g id="LOGO-LAYER">
      <path class="cls-3" d="M568.95,131.79l-29.68,3.12v29.68l-25.44,2.67v-29.68l-29.68,3.12v-25.44l29.68-3.12v-29.68l25.44-2.67v29.68l29.68-3.12v25.44ZM584.92,16.02c-29.56,0-53.62,34.54-56.11,45.87-2.49,11.33-10.23,5.8-11.6-1.1-1.38-6.91-9.83-22.52-30.27-22.52-14.64,0-41.53,16.17-42.1,67.83-.69,62.17,69.5,90.7,79.26,110.43,10.96-32.58,94.26-84.18,96.47-148.84.81-23.75-8.57-51.67-35.64-51.67"/>
      <path class="cls-2" d="M539.27,79.8l-25.44,2.67v29.68l-29.68,3.12v25.44l29.68-3.12v29.68l25.44-2.67v-29.68l29.68-3.12v-25.44l-29.68,3.12v-29.68Z"/>
      <path class="cls-1" d="M620.56,67.69c-2.21,64.65-85.5,116.25-96.47,148.84-9.76-19.74-79.95-48.26-79.26-110.43.58-51.66,27.46-67.83,42.1-67.83,20.45,0,28.89,15.61,30.27,22.52,1.38,6.91,9.12,12.43,11.6,1.1,2.49-11.33,26.55-45.87,56.11-45.87,27.08,0,36.45,27.92,35.64,51.67M594.59,0c-24.31,0-53.07,17.96-70.48,47.8-4.7-10.78-21.43-22.52-41.32-22.52-16.03,0-61.02,20.03-61.02,84.69,0,83.44,84.42,100.58,101.49,126.51,1.17,1.78,4.95,3.13,6.39-1.13,13.62-40.19,119.21-85.6,119.21-167.38,0-45.87-29.96-67.97-54.28-67.97"/>
      <path class="cls-1" d="M181.93,321.26l7.05-8.45c4.88,4.03,9.99,6.59,16.19,6.59,4.88,0,7.83-1.94,7.83-5.11v-.16c0-3.02-1.86-4.57-10.93-6.89-10.92-2.79-17.97-5.81-17.97-16.58v-.15c0-9.84,7.9-16.34,18.98-16.34,7.9,0,14.64,2.48,20.14,6.89l-6.2,8.99c-4.8-3.33-9.53-5.35-14.1-5.35s-6.97,2.09-6.97,4.73v.15c0,3.56,2.32,4.72,11.7,7.13,11,2.87,17.2,6.82,17.2,16.27v.16c0,10.77-8.21,16.81-19.91,16.81-8.21,0-16.5-2.87-23.01-8.67"/>
      <path class="cls-1" d="M281.71,302.2c0,9.3-6.66,16.89-16.27,16.89s-16.42-7.74-16.42-17.04v-.16c0-9.29,6.66-16.89,16.27-16.89s16.42,7.75,16.42,17.04v.16ZM265.44,274c-16.73,0-28.89,12.63-28.89,28.04v.16c0,15.42,12.01,27.89,28.74,27.89s28.89-12.62,28.89-28.04v-.16c0-15.41-12.01-27.89-28.74-27.89"/>
      <path class="cls-1" d="M307.91,274.93h11l25.41,33.39v-33.39h11.77v54.23h-10.15l-26.26-34.47v34.47h-11.77v-54.23Z"/>
      <path class="cls-1" d="M371.28,302.2v-.16c0-15.42,12.01-28.04,28.43-28.04,9.76,0,15.65,2.64,21.3,7.44l-7.51,9.07c-4.18-3.49-7.9-5.5-14.17-5.5-8.67,0-15.57,7.67-15.57,16.89v.16c0,9.92,6.82,17.2,16.42,17.2,4.34,0,8.21-1.09,11.23-3.25v-7.75h-12.01v-10.3h23.55v23.55c-5.58,4.72-13.25,8.6-23.16,8.6-16.89,0-28.51-11.85-28.51-27.89"/>
      <path class="cls-1" d="M464.56,302.2v-.16c0-15.42,11.62-28.04,28.28-28.04,10.22,0,16.34,3.41,21.38,8.37l-7.59,8.75c-4.18-3.8-8.45-6.12-13.86-6.12-9.14,0-15.73,7.59-15.73,16.89v.16c0,9.3,6.43,17.04,15.73,17.04,6.19,0,9.99-2.48,14.25-6.35l7.6,7.67c-5.58,5.96-11.78,9.68-22.23,9.68-15.96,0-27.81-12.32-27.81-27.89"/>
      <path class="cls-1" d="M570,302.2c0,9.3-6.66,16.89-16.27,16.89s-16.42-7.74-16.42-17.04v-.16c0-9.29,6.66-16.89,16.27-16.89s16.42,7.75,16.42,17.04v.16ZM553.73,274c-16.73,0-28.89,12.63-28.89,28.04v.16c0,15.42,12.01,27.89,28.74,27.89s28.89-12.62,28.89-28.04v-.16c0-15.41-12-27.89-28.74-27.89"/>
      <path class="cls-1" d="M596.19,274.93h11l25.41,33.39v-33.39h11.78v54.23h-10.15l-26.26-34.47v34.47h-11.77v-54.23Z"/>
      <path class="cls-1" d="M673.51,285.94h-16.5v-11h44.93v11h-16.5v43.23h-11.93v-43.23Z"/>
      <path class="cls-1" d="M715.73,274.93h40.9v10.61h-29.05v11h25.56v10.61h-25.56v11.39h29.44v10.61h-41.29v-54.23Z"/>
      <path class="cls-1" d="M768.5,321.26l7.05-8.45c4.88,4.03,9.99,6.59,16.19,6.59,4.88,0,7.82-1.94,7.82-5.11v-.16c0-3.02-1.86-4.57-10.93-6.89-10.92-2.79-17.97-5.81-17.97-16.58v-.15c0-9.84,7.9-16.34,18.98-16.34,7.9,0,14.64,2.48,20.14,6.89l-6.2,8.99c-4.8-3.33-9.53-5.35-14.1-5.35s-6.97,2.09-6.97,4.73v.15c0,3.56,2.32,4.72,11.7,7.13,11,2.87,17.2,6.82,17.2,16.27v.16c0,10.77-8.21,16.81-19.91,16.81-8.21,0-16.5-2.87-23-8.67"/>
      <path class="cls-1" d="M837.84,285.94h-16.5v-11h44.93v11h-16.5v43.23h-11.93v-43.23Z"/>
      <path class="cls-1" d="M102.78,53.05c-63,6.91-83.99,43.66-85.93,48.63-1.48,3.8-1.11,4.7,3.04,4.7s61.35-6.34,77.91-5.53c16.85.83,15.75,19.34,2.49,23.21-54.15,15.2-85.65,53.88-85.65,73.77,0,15.19,11.05,22.38,23.76,22.38,37.85,0,76.15-39.33,83.29-47.99,4.5-5.46,7.29-2.03,7.3.41.07,31.96-34.28,69.69-80.36,69.69C15.75,242.32,0,217.17,0,196.17c0-39.79,43.1-73.77,43.1-73.77,0,0-21.84.83-29.3.83-6.03,0-10.23-4.55-10.42-9.52C1.34,61.98,54.63,22.04,102.86,25.54c19.06,1.38,21.2,25.85-.08,27.51"/>
      <path class="cls-1" d="M158.41,173.87c.94,9.49,7.42,19.5,16.21,9.89,22.25-25.82,20.06-96.98,19.51-104.66-.55-7.69,3.57-9.89,6.59-5.77,3.02,4.12,17.31,26.92,17.31,61.81,0,42.31-25.24,85.65-45.02,85.65-45.06,0-40.97-103.23-27.51-137.3,6.99-17.69,25.55-10.02,25.55,2.48,0,18.13-15.38,60.16-12.64,87.91"/>
      <path class="cls-1" d="M262.15,101.4s31.5-8.01,42.27-6.91c9.38.96,11.33,4.97,6.55,12.39-11.25,17.46-37.11,23.51-51.04,23.25,1.11-14.09,2.21-28.73,2.21-28.73M271.26,144.78c26.25-1.66,59.13-22.1,59.13-43.93,0-16.16-16.82-27.81-38.64-27.81s-45.9,7.37-55.02,12.89c-11.88,6.91-3.04,23.21,8.01,18.79,0,0-4.15,19.34-5.25,29.56-8.97-1.11-10.78.55-10.22,2.49.55,1.93,4.42,3.59,8.84,9.12-1.38,12.15-3.83,66.21-3.28,70.91.56,4.73,3.41,5.55,7.46.55,3.59-4.42,11.29-15.1,14.88-55.44,4.14,3.59,15.47,18.76,29.29,36.47,20.26,25.97,26.94,27.84,35.27,30.77,4.49,1.59,9.12-.99,5.82-5.57-13.48-18.7-30.4-56.14-56.29-78.8"/>
      <path class="cls-1" d="M376.95,196.84c-12.65,0-19.68-16.34-19.68-34.09,0-31.27,22.49-59.73,22.49-59.73,6.18,7.89,21.08,30.14,21.08,52.68s-11.25,41.14-23.89,41.14M387.07,93.16s7.15-9.71,2.85-15.19c-4.84-6.17-20.33-8.1-34.86,8.17-19.12,21.41-32.51,66.6-18.03,104.5,13.84,36.25,52.6,39.31,70.56,11.84,16.02-24.52,11.81-65.37-20.52-109.31"/>
      <path class="cls-1" d="M669.79,73.61c8.26,2.68,15.43,16.83,13.44,39.96-3.26,37.74-28.69,84.67-32.37,102.47-1.24,5.96-5.87,5.68-7.99,2.4-2.03-3.13-6.28-12.74-5.13-36.5,1.58-32.59,26.27-77.24,25.54-105.32-.1-3.75,2.83-4.2,6.52-3.01"/>
      <path class="cls-1" d="M753.46,100.3c-29.01,0-38.04,8.94-38.04,15.75,0,18.23,31.5,16.95,46.05,18.6,8.42.96,19.34,6.45,19.34,21,0,16.07-20.12,28.99-41.49,40.75-22.45,12.35-45.59,24.47-56.15,31.74-5.44,3.74-8.96-1.1-6.35-6.16,7.51-14.64,21.56-28.42,40.8-41.47,28.16-19.1,46.25-27.8,38.69-30.56-4.18-1.53-15.66-2.4-27.45-4.61-20.26-3.32-32.97-15.1-32.97-32.24,0-27.81,24.92-40.06,59.46-40.06,18.23,0,20.48,27.26-1.9,27.26"/>
      <path class="cls-1" d="M808.11,73.15c9.19.78,24.87,13.08,23.11,44.83-1.37,24.93-22.61,78.58-24.44,98.34-.37,4.02-4.35,6.25-7.39,2.53-5.93-7.27-8.46-15.17-8.46-37.6s19.24-81.45,7.93-103.15c-2.57-4.47,4.16-5.39,9.25-4.96"/>
      <path class="cls-1" d="M806.44,6.68c-1.92-7.58,6.22-8.43,11.97-3.74,3.7,3.03,22.13,21.26,22.14,43.29,0,25.28-34.49,21.94-33.91,1.26.2-7.22,4.22-24.92-.19-40.81"/>
      <path class="cls-1" d="M887.5,201.22c-13.98-.71-21.97-17.25-20.99-34.16,1.71-29.79,26.62-59.87,26.62-59.87,5.81,5.31,23.3,34.06,22.35,56.06-.93,21.49-14.01,38.67-27.98,37.97M904.14,97.29c6.01-7,10.13-11.08,9.21-15.93-.93-4.86-17.37-8.22-24.68-1.47-21.64-17.17-17.21,2.94-14.08,7.43-25.56,17.98-42.86,65.3-28.94,102.22,13.6,36.09,54.64,40.55,76.15,15.18,19.04-22.46,15.65-63.75-17.65-107.43"/>
      <path class="cls-1" d="M1036.29,221.23c-22.05-19.03-19.97-73.52-21.07-95.08-1.09-21.18-27.7-19.55-34.22-10.68-4.7,27.16-6.31,75.95-20.07,102.75-1.99,3.62-7.06,3-7.58-1.12-.53-4.35-5.64-15.7-5.64-47.75s3.74-78.27,29.63-94.38c4.71-2.54,7.96-2.53,8.14.18.16,2.37-.69,9.9-.88,14.79,0,0,9.78-7.43,26.25-7.43,12.68,0,34.04,13.22,34.04,38.92,0,33.67-6.2,69.41-1.69,97.18.65,3.99-3.95,5.16-6.93,2.6"/>
      <path class="cls-1" d="M351.14,409.72c6.38,0,10.36-2.83,10.36-7.53v-.12c0-4.58-3.85-7.23-11.2-7.23h-13.31v14.88h14.15ZM349.46,390.63c5.72,0,9.7-2.59,9.7-7.53v-.12c0-4.16-3.31-6.87-9.33-6.87h-12.83v14.51h12.47ZM332.3,371.84h17.95c4.82,0,8.61,1.38,11.02,3.73,1.75,1.81,2.71,4.04,2.71,6.75v.12c0,5.48-3.37,8.31-6.68,9.76,5,1.5,9.03,4.4,9.03,10.18v.12c0,7.23-6.08,11.5-15.3,11.5h-18.73v-42.15Z"/>
      <path class="cls-1" d="M404.93,398.58l-9.58-21.5-9.64,21.5h19.21ZM393.19,371.54h4.46l19.21,42.46h-5.12l-4.94-11.14h-22.94l-5,11.14h-4.88l19.21-42.46Z"/>
      <path class="cls-1" d="M423.37,407.85l2.95-3.49c4.4,3.98,8.61,5.96,14.45,5.96s9.4-3.01,9.4-7.17v-.12c0-3.91-2.11-6.14-10.96-8.01-9.7-2.11-14.15-5.24-14.15-12.16v-.12c0-6.63,5.84-11.5,13.85-11.5,6.14,0,10.54,1.75,14.82,5.18l-2.77,3.67c-3.91-3.19-7.83-4.58-12.16-4.58-5.48,0-8.97,3.01-8.97,6.81v.12c0,3.97,2.17,6.2,11.44,8.19,9.39,2.05,13.73,5.48,13.73,11.92v.12c0,7.23-6.02,11.92-14.39,11.92-6.68,0-12.16-2.23-17.22-6.74"/>
      <path class="cls-1" d="M466.49,371.84h30.47v4.34h-25.72v14.39h23.01v4.34h-23.01v14.75h26.02v4.34h-30.77v-42.16Z"/>
      <path class="cls-1" d="M508.66,371.84h4.76v37.76h23.73v4.4h-28.49v-42.16Z"/>
      <path class="cls-1" d="M564.56,410.32l15.3-13.49c6.44-5.78,8.79-9.04,8.79-13.25,0-4.94-3.91-8.07-8.49-8.07-4.82,0-7.95,2.53-11.32,7.23l-3.49-2.53c3.79-5.66,7.77-8.97,15.18-8.97s13.07,5.06,13.07,11.92v.12c0,6.14-3.25,9.94-10.66,16.38l-11.26,10h22.34v4.33h-29.45v-3.67Z"/>
      <path class="cls-1" d="M633.94,393.04v-.12c0-9.21-5.06-17.46-12.89-17.46s-12.83,8.07-12.83,17.34v.12c0,9.21,5.06,17.46,12.95,17.46s12.77-8.13,12.77-17.34M603.29,393.04v-.12c0-11.8,7.05-21.8,17.89-21.8s17.71,9.88,17.71,21.68v.12c0,11.8-6.99,21.8-17.83,21.8s-17.77-9.88-17.77-21.68"/>
      <path class="cls-1" d="M646.72,410.32l15.3-13.49c6.44-5.78,8.79-9.04,8.79-13.25,0-4.94-3.91-8.07-8.49-8.07-4.82,0-7.95,2.53-11.32,7.23l-3.49-2.53c3.79-5.66,7.77-8.97,15.18-8.97s13.07,5.06,13.07,11.92v.12c0,6.14-3.25,9.94-10.66,16.38l-11.26,10h22.34v4.33h-29.45v-3.67Z"/>
      <path class="cls-1" d="M684.9,408.03l3.13-3.43c3.67,3.55,7.71,5.78,11.98,5.78,6.02,0,10.18-3.97,10.18-9.33v-.12c0-5.24-4.34-8.85-10.48-8.85-3.55,0-6.38,1.08-8.85,2.41l-3.19-2.11,1.2-20.54h24.27v4.4h-20.11l-.9,13.49c2.47-1.08,4.82-1.87,8.31-1.87,8.19,0,14.57,4.88,14.57,12.89v.12c0,8.25-6.26,13.85-15.05,13.85-6.02,0-11.26-2.89-15.06-6.68"/>
    </g>
  </g>
</svg>